<?xml version="1.0" encoding="utf-8"?>
<!-- Generator: Adobe Illustrator 27.5.0, SVG Export Plug-In . SVG Version: 6.00 Build 0)  -->
<svg version="1.1" xmlns="http://www.w3.org/2000/svg" xmlns:xlink="http://www.w3.org/1999/xlink" x="0px" y="0px"
	 viewBox="0 0 500 500" style="enable-background:new 0 0 500 500;" xml:space="preserve">
<g id="BACKGROUND">
	<linearGradient id="SVGID_1_" gradientUnits="userSpaceOnUse" x1="0" y1="250" x2="500" y2="250">
		<stop  offset="0" style="stop-color:#83DFFF"/>
		<stop  offset="1" style="stop-color:#48D0FF"/>
	</linearGradient>
	<rect style="fill:url(#SVGID_1_);" width="500" height="500"/>
</g>
<g id="OBJECTS">
	<g>
		<g>
			<path style="fill:#FFFFFF;" d="M204.678,197.543c0,13.905,14.059,25.177,31.401,25.177c4.532,0,8.835-0.776,12.726-2.161
				c6.584,4.47,15.809,7.253,26.03,7.253c9.548,0,18.228-2.429,24.698-6.393c6.869,5.379,15.963,8.656,25.94,8.656
				c13.855,0,26.005-6.32,32.857-15.817c6.828,7.297,17.565,12.005,29.649,12.005c7.975,0,15.36-2.055,21.427-5.546
				c6.476,5.072,15.525,8.227,25.546,8.227c19.686,0,35.644-12.159,35.644-27.158c0-14.999-15.958-27.157-35.644-27.157
				c-3.191,0-6.281,0.324-9.224,0.923c1.893-3.005,3-6.505,3-10.259c0-11.093-9.499-20.085-21.217-20.085
				c-4.189,0-8.084,1.165-11.374,3.149c-5.098-12.69-19.225-21.82-35.869-21.82c-4.47,0-8.756,0.663-12.738,1.872
				c-1.865-5.116-7.372-8.825-13.88-8.825c-2.653,0-5.133,0.626-7.275,1.702c-4.974-12.464-17.812-21.341-32.869-21.341
				c-19.373,0-35.078,14.692-35.078,32.815c0,2.54,0.319,5.01,0.903,7.384c-12.467,4.689-21.271,16.077-21.271,29.392
				c0,0.976,0.054,1.939,0.147,2.893c-0.704-0.038-1.411-0.064-2.127-0.064C218.736,172.366,204.678,183.638,204.678,197.543z
				 M324.075,148.85c0.13-0.215,0.26-0.43,0.385-0.649c-0.094,0.231-0.188,0.462-0.276,0.695
				C324.148,148.881,324.112,148.865,324.075,148.85z"/>
			<path style="fill:#C5EAF9;" d="M446.601,176.121c0.792,1.428,1.475,2.918,2.033,4.457c2.589,7.151,2.659,15.671-1.122,22.426
				c-1.794,3.204-4.486,5.88-7.77,7.543c-3.92,1.985-8.374,2.498-12.712,2.128c-0.114-0.01-0.212-0.041-0.297-0.088
				c-17.309,0.678-27.992-22.114-27.992-22.114s-1.132,16.408-28.289,16.408c-27.157,0-31.118-24.329-31.118-24.329
				s-10.75,22.631-41.868,24.329c-31.118,1.697-30.552-14.145-30.552-14.145s-17.539,19.236-41.302,17.539
				c-8.773-0.627-15.073-2.797-19.537-5.284c3.96,10.27,15.895,17.731,30.004,17.731c4.532,0,8.835-0.776,12.726-2.161
				c6.584,4.47,15.809,7.253,26.03,7.253c9.549,0,18.228-2.429,24.698-6.393c6.869,5.379,15.963,8.656,25.94,8.656
				c13.855,0,26.005-6.32,32.857-15.817c6.828,7.296,17.565,12.005,29.649,12.005c7.975,0,15.36-2.056,21.427-5.546
				c6.476,5.072,15.525,8.227,25.546,8.227c19.686,0,35.644-12.159,35.644-27.158C470.595,189.898,460.563,179.8,446.601,176.121z"
				/>
			<path style="fill:#E3F5FE;" d="M396.882,147.941c-0.249,0.137-0.502,0.27-0.745,0.416c-2.078-5.172-5.674-9.736-10.311-13.348
				c-1.362,5.201-5.695,12.4-18.769,16.423c-22.065,6.789-35.644-9.618-35.644-9.618s-20.934,16.973-36.21,12.447
				c12.447,16.974,39.605,2.263,39.605,2.263s13.013,14.71,41.868,6.224C387.949,159.432,393.854,153.698,396.882,147.941z
				 M324.184,148.896c-0.036-0.015-0.072-0.031-0.109-0.046c0.13-0.215,0.26-0.43,0.385-0.649
				C324.366,148.432,324.272,148.663,324.184,148.896z"/>
			<path style="fill:#E3F5FE;" d="M285.019,139.551c-10.34-0.739-20.195-8.465-25.795-13.744c-0.517,2.242-0.797,4.568-0.797,6.955
				c0,2.54,0.319,5.01,0.903,7.384c-0.062,0.023-0.12,0.052-0.181,0.076C266.24,142.436,277.661,144.702,285.019,139.551z"/>
		</g>
		<g>
			<path style="fill:#ECFBFF;" d="M330.189,220.43c-4.475,0.389-8.808-0.013-12.703-0.873c-3.904-0.854-7.354-2.176-10.286-3.475
				c2.012,2.478,5.102,5.048,9.164,6.839c4.037,1.799,9.039,2.802,14.264,2.34c5.223-0.486,9.962-2.372,13.611-4.868
				c3.673-2.492,6.25-5.576,7.784-8.376c-2.651,1.806-5.807,3.727-9.493,5.269C338.851,218.833,334.661,220.008,330.189,220.43z"/>
		</g>
		<g>
			<path style="fill:#ECFBFF;" d="M447.923,217.161c2.545-1.154,4.893-2.681,6.845-4.515c1.952-1.838,3.465-3.92,4.595-6.01
				c2.248-4.211,3.032-8.373,3.135-11.761c-1.546,3.026-3.444,6.529-6.095,9.809c-1.33,1.631-2.849,3.189-4.585,4.547
				c-1.739,1.355-3.725,2.525-5.896,3.511c-4.357,1.973-8.954,2.989-13.252,3.739c-4.303,0.742-8.316,1.26-11.644,1.981
				c3.312,0.771,7.31,1.474,11.914,1.555C437.514,220.085,442.807,219.473,447.923,217.161z"/>
		</g>
		<g>
			<path style="fill:#ECFBFF;" d="M209.295,219.69c-2.996-2.022-5.666-4.258-7.784-6.565c-2.131-2.307-3.679-4.744-4.638-7.189
				c-0.263,1.28-0.286,2.777-0.011,4.363c0.289,1.579,0.869,3.242,1.737,4.849c1.735,3.226,4.521,6.23,8.007,8.579
				c3.51,2.315,7.344,3.703,10.887,4.175c3.543,0.514,6.769,0.138,9.254-0.638C221.703,225.876,215.334,223.721,209.295,219.69z"/>
		</g>
	</g>
	<g>
		<g>
			<path style="fill:#FFFFFF;" d="M58.815,106.185c-2.583-3.999-4.069-8.639-4.069-13.594c0-14.999,13.552-27.157,30.269-27.157
				c5.383,0,10.433,1.266,14.813,3.476c2.398-16.391,15.75-28.936,31.864-28.936c17.811,0,32.249,15.325,32.249,34.23
				c0,1.638-0.115,3.247-0.325,4.824c0.203-0.003,0.404-0.015,0.608-0.015c16.858,0,31.039,11.079,35.229,26.132
				c12.459,1.074,22.198,10.368,22.198,21.677c0,12.03-11.019,21.783-24.611,21.783c-5.224,0-10.064-1.445-14.048-3.901
				c-5.484,3.193-11.903,5.033-18.767,5.033c-11.784,0-22.256-5.417-28.928-13.816c-6.954,7.06-17.391,11.553-29.064,11.553
				c-10.07,0-19.216-3.347-26.004-8.796c-4.692,4.994-12.204,8.231-20.673,8.231c-14.217,0-25.743-9.119-25.743-20.368
				C33.812,115.485,44.941,106.495,58.815,106.185z"/>
			<path style="fill:#C5EAF9;" d="M219.731,118.387c-5.772,4.811-14.24,9.248-26.369,10.414
				c-29.421,2.829-32.249-20.934-32.249-20.934s-7.355,17.539-36.21,18.105c-28.855,0.566-40.736-10.184-40.736-10.184
				s-8.487,18.105-32.815,16.973c-9.777-0.455-14.888-3.56-17.511-7.111c-0.016,0.295-0.028,0.59-0.028,0.888
				c0,11.249,11.526,20.368,25.743,20.368c8.469,0,15.981-3.237,20.673-8.231c6.788,5.449,15.934,8.796,26.004,8.796
				c11.674,0,22.111-4.493,29.064-11.553c6.672,8.399,17.145,13.816,28.928,13.816c6.864,0,13.283-1.839,18.767-5.033
				c3.984,2.456,8.824,3.901,14.048,3.901c13.593,0,24.611-9.752,24.611-21.783C221.651,123.829,220.964,120.982,219.731,118.387z"
				/>
			<path style="fill:#E3F5FE;" d="M98.877,90.328c0,0-9.052,9.618-28.855,7.355c-7.504-0.858-12.242-3.504-15.238-6.458
				c-0.025,0.453-0.038,0.908-0.038,1.367c0,4.672,1.335,9.058,3.652,12.897C82.829,112.28,98.877,90.328,98.877,90.328z"/>
			<path style="fill:#E3F5FE;" d="M164.224,79.012c-0.204,0-0.405,0.012-0.608,0.015c0.21-1.577,0.325-3.186,0.325-4.824
				c0-1.874-0.147-3.71-0.42-5.502c-2.879,1.335-6.298,2.418-10.33,2.956c-16.973,2.263-26.026-7.355-26.026-7.355
				s3.395,20.934,23.763,19.237c6.497-0.541,11.78-2.293,15.969-4.426C166.014,79.05,165.124,79.012,164.224,79.012z"/>
		</g>
		<g>
			<path style="fill:#ECFBFF;" d="M35.418,143.002c-2.725-2.252-4.785-5.112-6.055-8.014c-1.288-2.911-1.705-5.895-1.508-8.615
				c-0.788,1.097-1.462,2.509-1.822,4.159c-0.364,1.646-0.412,3.515-0.079,5.431c0.656,3.83,2.827,7.858,6.397,10.797
				c3.536,2.867,7.667,4.29,11.324,4.784c3.687,0.5,6.975,0.15,9.6-0.507c-2.585-0.833-5.602-1.702-8.725-2.929
				C41.432,146.883,38.231,145.28,35.418,143.002z"/>
		</g>
		<g>
			<path style="fill:#ECFBFF;" d="M152.338,153.036c-6.58-1.957-12.173-5.384-16.607-7.741c1.156,2.224,2.948,4.687,5.49,6.944
				c2.53,2.25,5.848,4.289,9.743,5.449c3.913,1.149,7.91,1.199,11.298,0.389c3.404-0.794,6.143-2.464,7.882-4.26
				c-2.471,0.487-5.26,0.827-8.279,0.736C158.85,154.471,155.612,153.991,152.338,153.036z"/>
		</g>
		<g>
			<path style="fill:#ECFBFF;" d="M107.048,137.739c-3.791,0.343-7.422,0.384-10.765,0.143c-3.367-0.192-6.302-0.604-8.816-1.624
				c1.574,2.229,4.659,4.067,8.142,5.105c3.499,1.13,7.632,1.598,11.908,1.204c4.271-0.437,8.227-1.684,11.45-3.434
				c3.239-1.725,5.76-3.879,7.45-5.984C121.313,134.926,114.635,137.008,107.048,137.739z"/>
		</g>
	</g>
	</g>
</svg>
