<?xml version="1.0" encoding="utf-8"?>
<!-- Generator: Adobe Illustrator 27.5.0, SVG Export Plug-In . SVG Version: 6.00 Build 0)  -->
<svg version="1.1" xmlns="http://www.w3.org/2000/svg" xmlns:xlink="http://www.w3.org/1999/xlink" x="0px" y="0px"
	 viewBox="0 0 500 500" style="enable-background:new 0 0 500 500;" xml:space="preserve">
<g id="BACKGROUND">
	<linearGradient id="SVGID_1_" gradientUnits="userSpaceOnUse" x1="0" y1="250" x2="500" y2="250">
		<stop  offset="0" style="stop-color:#83DFFF"/>
		<stop  offset="1" style="stop-color:#48D0FF"/>
	</linearGradient>
	<rect style="fill:url(#SVGID_1_);" width="500" height="500"/>
</g>
<g id="OBJECTS">
	<g>
		<g>
			<path style="fill:#FFFFFF;" d="M204.678,197.543c0,13.905,14.059,25.177,31.401,25.177c4.532,0,8.835-0.776,12.726-2.161
				c6.584,4.47,15.809,7.253,26.03,7.253c9.548,0,18.228-2.429,24.698-6.393c6.869,5.379,15.963,8.656,25.94,8.656
				c13.855,0,26.005-6.32,32.857-15.817c6.828,7.297,17.565,12.005,29.649,12.005c7.975,0,15.36-2.055,21.427-5.546
				c6.476,5.072,15.525,8.227,25.546,8.227c19.686,0,35.644-12.159,35.644-27.158c0-14.999-15.958-27.157-35.644-27.157
				c-3.191,0-6.281,0.324-9.224,0.923c1.893-3.005,3-6.505,3-10.259c0-11.093-9.499-20.085-21.217-20.085
				c-4.189,0-8.084,1.165-11.374,3.149c-5.098-12.69-19.225-21.82-35.869-21.82c-4.47,0-8.756,0.663-12.738,1.872
				c-1.865-5.116-7.372-8.825-13.88-8.825c-2.653,0-5.133,0.626-7.275,1.702c-4.974-12.464-17.812-21.341-32.869-21.341
				c-19.373,0-35.078,14.692-35.078,32.815c0,2.54,0.319,5.01,0.903,7.384c-12.467,4.689-21.271,16.077-21.271,29.392
				c0,0.976,0.054,1.939,0.147,2.893c-0.704-0.038-1.411-0.064-2.127-0.064C218.736,172.366,204.678,183.638,204.678,197.543z
				 M324.075,148.85c0.13-0.215,0.26-0.43,0.385-0.649c-0.094,0.231-0.188,0.462-0.276,0.695
				C324.148,148.881,324.112,148.865,324.075,148.85z"/>
			<path style="fill:#C5EAF9;" d="M446.601,176.121c0.792,1.428,1.475,2.918,2.033,4.457c2.589,7.151,2.659,15.671-1.122,22.426
				c-1.794,3.204-4.486,5.88-7.77,7.543c-3.92,1.985-8.374,2.498-12.712,2.128c-0.114-0.01-0.212-0.041-0.297-0.088
				c-17.309,0.678-27.992-22.114-27.992-22.114s-1.132,16.408-28.289,16.408c-27.157,0-31.118-24.329-31.118-24.329
				s-10.75,22.631-41.868,24.329c-31.118,1.697-30.552-14.145-30.552-14.145s-17.539,19.236-41.302,17.539
				c-8.773-0.627-15.073-2.797-19.537-5.284c3.96,10.27,15.895,17.731,30.004,17.731c4.532,0,8.835-0.776,12.726-2.161
				c6.584,4.47,15.809,7.253,26.03,7.253c9.549,0,18.228-2.429,24.698-6.393c6.869,5.379,15.963,8.656,25.94,8.656
				c13.855,0,26.005-6.32,32.857-15.817c6.828,7.296,17.565,12.005,29.649,12.005c7.975,0,15.36-2.056,21.427-5.546
				c6.476,5.072,15.525,8.227,25.546,8.227c19.686,0,35.644-12.159,35.644-27.158C470.595,189.898,460.563,179.8,446.601,176.121z"
				/>
			<path style="fill:#E3F5FE;" d="M396.882,147.941c-0.249,0.137-0.502,0.27-0.745,0.416c-2.078-5.172-5.674-9.736-10.311-13.348
				c-1.362,5.201-5.695,12.4-18.769,16.423c-22.065,6.789-35.644-9.618-35.644-9.618s-20.934,16.973-36.21,12.447
				c12.447,16.974,39.605,2.263,39.605,2.263s13.013,14.71,41.868,6.224C387.949,159.432,393.854,153.698,396.882,147.941z
				 M324.184,148.896c-0.036-0.015-0.072-0.031-0.109-0.046c0.13-0.215,0.26-0.43,0.385-0.649
				C324.366,148.432,324.272,148.663,324.184,148.896z"/>
			<path style="fill:#E3F5FE;" d="M285.019,139.551c-10.34-0.739-20.195-8.465-25.795-13.744c-0.517,2.242-0.797,4.568-0.797,6.955
				c0,2.54,0.319,5.01,0.903,7.384c-0.062,0.023-0.12,0.052-0.181,0.076C266.24,142.436,277.661,144.702,285.019,139.551z"/>
		</g>
		<g>
			<path style="fill:#ECFBFF;" d="M330.189,220.43c-4.475,0.389-8.808-0.013-12.703-0.873c-3.904-0.854-7.354-2.176-10.286-3.475
				c2.012,2.478,5.102,5.048,9.164,6.839c4.037,1.799,9.039,2.802,14.264,2.34c5.223-0.486,9.962-2.372,13.611-4.868
				c3.673-2.492,6.25-5.576,7.784-8.376c-2.651,1.806-5.807,3.727-9.493,5.269C338.851,218.833,334.661,220.008,330.189,220.43z"/>
		</g>
		<g>
			<path style="fill:#ECFBFF;" d="M447.923,217.161c2.545-1.154,4.893-2.681,6.845-4.515c1.952-1.838,3.465-3.92,4.595-6.01
				c2.248-4.211,3.032-8.373,3.135-11.761c-1.546,3.026-3.444,6.529-6.095,9.809c-1.33,1.631-2.849,3.189-4.585,4.547
				c-1.739,1.355-3.725,2.525-5.896,3.511c-4.357,1.973-8.954,2.989-13.252,3.739c-4.303,0.742-8.316,1.26-11.644,1.981
				c3.312,0.771,7.31,1.474,11.914,1.555C437.514,220.085,442.807,219.473,447.923,217.161z"/>
		</g>
		<g>
			<path style="fill:#ECFBFF;" d="M209.295,219.69c-2.996-2.022-5.666-4.258-7.784-6.565c-2.131-2.307-3.679-4.744-4.638-7.189
				c-0.263,1.28-0.286,2.777-0.011,4.363c0.289,1.579,0.869,3.242,1.737,4.849c1.735,3.226,4.521,6.23,8.007,8.579
				c3.51,2.315,7.344,3.703,10.887,4.175c3.543,0.514,6.769,0.138,9.254-0.638C221.703,225.876,215.334,223.721,209.295,219.69z"/>
		</g>
	</g>
	<g>
		<g>
			<path style="fill:#FFFFFF;" d="M58.815,106.185c-2.583-3.999-4.069-8.639-4.069-13.594c0-14.999,13.552-27.157,30.269-27.157
				c5.383,0,10.433,1.266,14.813,3.476c2.398-16.391,15.75-28.936,31.864-28.936c17.811,0,32.249,15.325,32.249,34.23
				c0,1.638-0.115,3.247-0.325,4.824c0.203-0.003,0.404-0.015,0.608-0.015c16.858,0,31.039,11.079,35.229,26.132
				c12.459,1.074,22.198,10.368,22.198,21.677c0,12.03-11.019,21.783-24.611,21.783c-5.224,0-10.064-1.445-14.048-3.901
				c-5.484,3.193-11.903,5.033-18.767,5.033c-11.784,0-22.256-5.417-28.928-13.816c-6.954,7.06-17.391,11.553-29.064,11.553
				c-10.07,0-19.216-3.347-26.004-8.796c-4.692,4.994-12.204,8.231-20.673,8.231c-14.217,0-25.743-9.119-25.743-20.368
				C33.812,115.485,44.941,106.495,58.815,106.185z"/>
			<path style="fill:#C5EAF9;" d="M219.731,118.387c-5.772,4.811-14.24,9.248-26.369,10.414
				c-29.421,2.829-32.249-20.934-32.249-20.934s-7.355,17.539-36.21,18.105c-28.855,0.566-40.736-10.184-40.736-10.184
				s-8.487,18.105-32.815,16.973c-9.777-0.455-14.888-3.56-17.511-7.111c-0.016,0.295-0.028,0.59-0.028,0.888
				c0,11.249,11.526,20.368,25.743,20.368c8.469,0,15.981-3.237,20.673-8.231c6.788,5.449,15.934,8.796,26.004,8.796
				c11.674,0,22.111-4.493,29.064-11.553c6.672,8.399,17.145,13.816,28.928,13.816c6.864,0,13.283-1.839,18.767-5.033
				c3.984,2.456,8.824,3.901,14.048,3.901c13.593,0,24.611-9.752,24.611-21.783C221.651,123.829,220.964,120.982,219.731,118.387z"
				/>
			<path style="fill:#E3F5FE;" d="M98.877,90.328c0,0-9.052,9.618-28.855,7.355c-7.504-0.858-12.242-3.504-15.238-6.458
				c-0.025,0.453-0.038,0.908-0.038,1.367c0,4.672,1.335,9.058,3.652,12.897C82.829,112.28,98.877,90.328,98.877,90.328z"/>
			<path style="fill:#E3F5FE;" d="M164.224,79.012c-0.204,0-0.405,0.012-0.608,0.015c0.21-1.577,0.325-3.186,0.325-4.824
				c0-1.874-0.147-3.71-0.42-5.502c-2.879,1.335-6.298,2.418-10.33,2.956c-16.973,2.263-26.026-7.355-26.026-7.355
				s3.395,20.934,23.763,19.237c6.497-0.541,11.78-2.293,15.969-4.426C166.014,79.05,165.124,79.012,164.224,79.012z"/>
		</g>
		<g>
			<path style="fill:#ECFBFF;" d="M35.418,143.002c-2.725-2.252-4.785-5.112-6.055-8.014c-1.288-2.911-1.705-5.895-1.508-8.615
				c-0.788,1.097-1.462,2.509-1.822,4.159c-0.364,1.646-0.412,3.515-0.079,5.431c0.656,3.83,2.827,7.858,6.397,10.797
				c3.536,2.867,7.667,4.29,11.324,4.784c3.687,0.5,6.975,0.15,9.6-0.507c-2.585-0.833-5.602-1.702-8.725-2.929
				C41.432,146.883,38.231,145.28,35.418,143.002z"/>
		</g>
		<g>
			<path style="fill:#ECFBFF;" d="M152.338,153.036c-6.58-1.957-12.173-5.384-16.607-7.741c1.156,2.224,2.948,4.687,5.49,6.944
				c2.53,2.25,5.848,4.289,9.743,5.449c3.913,1.149,7.91,1.199,11.298,0.389c3.404-0.794,6.143-2.464,7.882-4.26
				c-2.471,0.487-5.26,0.827-8.279,0.736C158.85,154.471,155.612,153.991,152.338,153.036z"/>
		</g>
		<g>
			<path style="fill:#ECFBFF;" d="M107.048,137.739c-3.791,0.343-7.422,0.384-10.765,0.143c-3.367-0.192-6.302-0.604-8.816-1.624
				c1.574,2.229,4.659,4.067,8.142,5.105c3.499,1.13,7.632,1.598,11.908,1.204c4.271-0.437,8.227-1.684,11.45-3.434
				c3.239-1.725,5.76-3.879,7.45-5.984C121.313,134.926,114.635,137.008,107.048,137.739z"/>
		</g>
	</g>
	<g>
		<g>
			<path style="fill:#FFFFFF;" d="M484.739,348.607c0-9.53-8.613-17.256-19.237-17.256c-0.289,0-0.57,0.028-0.856,0.039
				c2.765-10.14-1.381-22.59-11.377-31.206c-10.243-8.829-23.566-10.991-33.253-6.325c0.51-2.137,0.789-4.357,0.789-6.639
				c0-16.561-14.185-29.986-31.684-29.986c-17.499,0-31.684,13.425-31.684,29.986c0,0.111,0.008,0.22,0.009,0.331
				c-2.27-0.582-4.64-0.897-7.081-0.897c-10.236,0-19.262,5.425-24.603,13.679c-3.746-2.896-8.461-4.626-13.587-4.626
				c-12.186,0-22.065,9.752-22.065,21.783c0,2.267,0.352,4.454,1.003,6.509c-13.689,0.067-24.766,10.804-24.766,24.043
				c0,13.28,11.146,24.046,24.894,24.046c2.397,0,4.712-0.334,6.906-0.945c1.232,8.779,12.486,15.655,26.192,15.655
				c9.757,0,18.267-3.486,22.809-8.661c2.723,1.525,6.079,2.438,9.723,2.438c3.949,0,7.57-1.059,10.401-2.822
				c5.984,7.139,16.443,11.875,28.355,11.875c12.186,0,22.859-4.952,28.767-12.367c4.753,4.763,12.272,7.841,20.738,7.841
				c14.374,0,26.026-8.866,26.026-19.802c0-0.065-0.006-0.129-0.007-0.194C479.02,362.938,484.739,356.373,484.739,348.607z"/>
			<g>
				<path style="fill:#C5EAF9;" d="M474.333,333.287c-3.978,8.048-12.776,18.858-31.461,19.563
					c-29.986,1.132-36.776-20.934-36.776-20.934s8.487,39.605-23.763,35.644c-32.25-3.961-37.907-15.842-37.907-15.842
					s1.131,16.973-15.276,15.276c-16.408-1.697-15.842-18.671-15.842-18.671s-9.618,13.579-27.157,14.145
					c-6.853,0.221-12.922-2.065-17.782-4.93c3.813,8.556,12.618,14.548,22.874,14.548c2.397,0,4.712-0.334,6.906-0.945
					c1.232,8.779,12.486,15.655,26.192,15.655c9.757,0,18.267-3.486,22.809-8.661c2.723,1.525,6.079,2.438,9.723,2.438
					c3.949,0,7.57-1.059,10.401-2.822c5.984,7.139,16.443,11.875,28.355,11.875c12.186,0,22.859-4.952,28.768-12.367
					c4.753,4.763,12.272,7.841,20.738,7.841c14.374,0,26.026-8.866,26.026-19.802c0-0.065-0.006-0.129-0.006-0.194
					c7.865-2.166,13.585-8.731,13.585-16.496C484.739,341.935,480.511,336.158,474.333,333.287z"/>
				<path style="fill:#E3F5FE;" d="M420.215,292.914c0.378-1.845,0.591-3.745,0.591-5.695c0-2.922-0.45-5.742-1.273-8.412
					c-4.82,5.283-13.251,10.578-26.45,6.715C398.499,294.55,410.825,295.735,420.215,292.914z"/>
				<path style="fill:#E3F5FE;" d="M306.518,331.916c19.237,3.395,26.026-11.316,26.026-11.316s5.092,6.789,20.368,4.526
					c15.276-2.263,15.842-16.408,15.842-16.408s-7.921,12.447-20.934,9.618c-13.013-2.829-17.539-12.447-17.539-12.447
					s-23.1,19.505-38.495,3.266c-1.078,2.567-1.675,5.38-1.675,8.332c0,2.267,0.352,4.454,1.003,6.509
					c-1.212,0.006-2.402,0.1-3.567,0.267C291.331,327.133,297.342,330.297,306.518,331.916z"/>
			</g>
		</g>
		<g>
			<path style="fill:#ECFBFF;" d="M401.975,398.191c-5.385,0.43-10.538-0.052-15.14-0.924c-4.609-0.918-8.693-2.135-11.56-4.365
				c1.075,1.453,2.66,2.798,4.557,3.894c0.947,0.552,1.968,1.051,3.036,1.509c1.082,0.414,2.195,0.876,3.37,1.249
				c4.697,1.479,10.217,2.321,15.964,1.863c5.753-0.373,11.096-1.937,15.547-4.036c4.472-2.088,8.017-4.785,10.545-7.354
				C422.073,393.631,412.788,397.474,401.975,398.191z"/>
		</g>
		<g>
			<path style="fill:#ECFBFF;" d="M454.864,374.452c-3.37,1.881-7.075,2.752-10.544,3.221c-3.475,0.475-6.72,0.63-9.429,0.928
				c2.632,0.691,5.843,1.356,9.566,1.432c3.689,0.08,8.017-0.544,11.986-2.759c1.969-1.108,3.728-2.552,5.069-4.258
				c1.354-1.703,2.245-3.68,2.643-5.595c0.411-1.923,0.352-3.813-0.053-5.461c-0.425-1.649-1.206-3.037-2.128-4.037
				c0.502,1.27,0.785,2.704,0.793,4.211c-0.014,1.511-0.293,3.093-0.884,4.633C460.751,369.879,458.225,372.578,454.864,374.452z"/>
		</g>
		<g>
			<path style="fill:#ECFBFF;" d="M318.988,375.025c-3.441-1.05-6.603-2.402-9.406-3.905c-1.398-0.756-2.711-1.54-3.936-2.331
				c-0.643-0.366-1.176-0.815-1.765-1.189c-0.265-0.184-0.624-0.405-0.809-0.544c-0.17-0.172-0.44-0.49-0.144-0.681
				c-0.174-0.041-0.358,0.165-0.375,0.361c-0.035,0.196-0.015,0.39,0.04,0.585c0.16,0.417,0.314,0.641,0.484,0.981
				c0.352,0.614,0.68,1.311,1.149,1.923c0.877,1.285,1.974,2.565,3.28,3.772c2.613,2.406,6.099,4.465,10.081,5.673
				c3.976,1.236,8.028,1.401,11.531,0.851c3.517-0.546,6.472-1.841,8.587-3.327C332.51,377.37,325.887,377.156,318.988,375.025z"/>
		</g>
		<g>
			<path style="fill:#ECFBFF;" d="M433.163,305.566c4.997,1.001,9.55,2.973,13.388,5.357c3.853,2.382,6.968,5.18,9.473,7.778
				c-1.227-3.376-3.594-7.259-7.331-10.605c-3.704-3.344-8.774-6.133-14.595-7.291c-5.827-1.127-11.575-0.461-16.268,1.236
				c-4.724,1.686-8.383,4.386-10.795,7.049c3.301-1.459,7.242-2.873,11.709-3.623C423.198,304.71,428.158,304.605,433.163,305.566z"
				/>
		</g>
		<g>
			<path style="fill:#ECFBFF;" d="M276.254,342.443c2.279-4.012,5.451-7.012,8.531-9.181c-1.838-0.384-4.221-0.134-6.585,0.98
				c-2.348,1.113-4.643,3.112-6.165,5.807c-1.539,2.694-2.077,5.731-1.703,8.398c0.199,1.34,0.661,2.599,1.368,3.599
				c0.692,1.008,1.676,1.684,2.585,1.907c-0.927-1.672-0.817-3.529-0.406-5.482C274.344,346.5,275.118,344.433,276.254,342.443z"/>
		</g>
	</g>
	<g>
		<path style="fill:#ECFBFF;" d="M269.178,408.128c4.59,0.171,8.936,1.073,12.796,2.359c3.869,1.28,7.237,2.952,10.088,4.527
			c-1.836-2.674-4.718-5.54-8.628-7.759c-3.887-2.224-8.793-3.785-14.092-3.975c-5.3-0.168-10.301,1.058-14.329,3.015
			c-4.051,1.95-7.12,4.615-9.132,7.159c2.951-1.38,6.424-2.82,10.371-3.836C260.19,408.596,264.587,407.989,269.178,408.128z"/>
	</g>
	<g>
		<g>
			<path style="fill:#FFFFFF;" d="M267.479,398.678c-4.314,0-8.45,0.515-12.287,1.456c2.942-5.52,3.447-11.305,0.804-15.883
				c-4.307-7.459-15.561-9.268-26.728-4.938c1.565-7.273,0.448-15.376-3.734-22.619c-6.572-11.383-18.763-17.279-30.16-15.672
				c0.16-1.129,0.252-2.279,0.252-3.448c0-14.686-13.045-26.592-29.138-26.592s-29.138,11.906-29.138,26.592
				c0,1.852,0.209,3.659,0.603,5.405c-3.134-0.935-6.472-1.444-9.939-1.444c-15.536,0-28.521,10.136-31.752,23.687
				c-2.961-1.043-6.18-1.621-9.55-1.621c-14.53,0-26.309,10.639-26.309,23.763c0,2.917,0.585,5.709,1.649,8.291
				c-2.321-0.605-4.77-0.936-7.307-0.936c-14.53,0-26.309,10.639-26.309,23.763c0,13.124,11.779,23.763,26.309,23.763
				c6.071,0,11.658-1.863,16.11-4.983c10.301,8.456,27.946,14.035,47.995,14.035c13.64,0,26.163-2.586,36.025-6.899
				c4.991,2.234,10.672,3.504,16.705,3.504c9.262,0,17.703-2.982,24.074-7.876c5.827,5.868,15.186,9.675,25.743,9.675
				c9.102,0,17.309-2.833,23.135-7.374c6.247,3.483,14.238,5.575,22.949,5.575c19.998,0,36.21-11.019,36.21-24.611
				S287.478,398.678,267.479,398.678z"/>
			<g>
				<path style="fill:#Er3F5FE;" d="M109.889,400.283c-1.811-1.68-3.091-2.736-3.091-2.736S107.552,398.698,109.889,400.283z"/>
				<path style="fill:#C5EAF9;" d="M303.6,424.931c-8.682,6.585-23.349,12.746-42.91,10.523
					c-24.894-2.829-24.329-14.145-24.329-14.145s-11.316,11.881-25.46,0.566c-14.144-11.316,7.921-23.763,7.921-23.763
					s-23.197,11.881-63.933,11.316c-27.753-0.385-40.005-5.759-45-9.146c7.285,6.756,23.188,23.631-0.828,22.724
					c-29.986-1.132-34.513-12.447-34.513-12.447s-6.224,15.842-26.592,14.71c-9.636-0.535-15.722-4.363-19.465-8.248
					c-0.032,0.483-0.054,0.968-0.054,1.459c0,13.124,11.779,23.763,26.309,23.763c6.071,0,11.658-1.863,16.11-4.983
					c10.3,8.456,27.946,14.035,47.995,14.035c13.64,0,26.163-2.586,36.025-6.899c4.991,2.234,10.672,3.504,16.705,3.504
					c9.262,0,17.703-2.982,24.074-7.876c5.827,5.868,15.186,9.675,25.743,9.675c9.102,0,17.309-2.833,23.135-7.374
					c6.247,3.483,14.238,5.575,22.949,5.575C286.665,447.901,302.357,437.758,303.6,424.931z"/>
			</g>
			<g>
				<path style="fill:#E3F5FE;" d="M142.442,363.6c-2.263,0-10.75,13.579-24.329,9.618c-10.791-3.148-8.005-20.576-6.406-27.604
					c-7.735,4.181-13.45,11.241-15.445,19.607c-0.362-0.128-0.74-0.226-1.11-0.339c-0.352,5.509,1.687,12.885,12.777,17.954
					c19.802,9.053,35.078-8.487,35.078-8.487s5.658,9.618,26.592,11.316c20.934,1.697,23.763-11.881,23.763-11.881
					S168.468,390.192,142.442,363.6z"/>
				<path style="fill:#E3F5FE;" d="M86.995,396.981c-10.116,1.619-20.23-10.362-25.171-17.319c-0.916,2.416-1.42,5.005-1.42,7.701
					c0,2.917,0.585,5.709,1.649,8.291c-0.218-0.057-0.442-0.099-0.662-0.151C67.601,398.886,76.403,401.163,86.995,396.981z"/>
				<path style="fill:#E3F5FE;" d="M195.373,341.022c0.16-1.129,0.252-2.279,0.252-3.448c0-3.073-0.578-6.021-1.629-8.767
					c-4.677,5.35-12.616,11.832-23.832,12.162c7.318,4.879,17.261,3.182,25.232,0.051
					C195.389,341.021,195.381,341.021,195.373,341.022z"/>
			</g>
		</g>
		<g>
			<path style="fill:#ECFBFF;" d="M62.075,459.707c-2.846,1.298-5.962,1.917-8.993,2.111c-3.043,0.208-6.017,0.003-8.798-0.499
				c-5.588-0.978-10.366-3.155-14.076-5.464c3.082,3.085,7.693,6.155,13.546,7.768c2.911,0.819,6.116,1.275,9.455,1.201
				c3.335-0.062,6.864-0.654,10.208-2.175c1.669-0.754,3.241-1.737,4.599-2.955c1.341-1.226,2.548-2.575,3.346-4.342
				c0.389-0.873,0.656-1.864,0.639-2.911c-0.003-1.046-0.35-2.101-0.871-2.918c-1.063-1.653-2.608-2.612-4.158-3.189
				c-3.155-1.124-6.385-0.554-8.777,0.737c-2.418,1.299-4.119,3.174-5.305,5.003c1.567-1.517,3.525-2.956,5.848-3.771
				c2.288-0.82,5.025-0.875,7.335,0.218c1.131,0.537,2.175,1.389,2.699,2.39c0.521,0.979,0.445,2.002-0.138,3.172
				c-0.564,1.137-1.591,2.254-2.704,3.215C64.806,458.262,63.498,459.065,62.075,459.707z"/>
		</g>
		<g>
			<path style="fill:#ECFBFF;" d="M285.533,451.601c-5.042,1.422-10.001,2.154-14.547,2.364c-4.55,0.22-8.675-0.093-12.156-0.502
				c3.211,1.369,7.356,2.524,12.122,2.866c4.755,0.355,10.109-0.104,15.472-1.62c5.351-1.557,10.134-4.006,13.978-6.828
				c3.86-2.816,6.763-5.993,8.76-8.856c-2.735,2.192-6.067,4.644-10.042,6.87C295.155,448.127,290.562,450.134,285.533,451.601z"/>
		</g>
		<g>
			<path style="fill:#ECFBFF;" d="M110.933,441.579c-9.095-0.926-17.128-3.02-22.98-4.646c2.51,1.7,5.758,3.444,9.609,4.859
				c3.846,1.419,8.29,2.507,13.042,3.005c4.754,0.475,9.327,0.31,13.38-0.301c4.058-0.606,7.592-1.656,10.394-2.812
				C128.317,442.09,120.027,442.514,110.933,441.579z"/>
		</g>
		<g>
			<path style="fill:#ECFBFF;" d="M162.699,419.301c-5.908,0.66-11.59,0.619-16.721,0.111c-5.137-0.499-9.709-1.474-13.533-2.435
				c3.45,1.884,7.923,3.689,13.175,4.771c5.241,1.093,11.241,1.462,17.452,0.765c6.206-0.742,11.963-2.473,16.815-4.736
				c4.865-2.255,8.807-5.034,11.735-7.658c-3.503,1.81-7.731,3.804-12.618,5.465C174.124,417.253,168.601,418.593,162.699,419.301z"
				/>
		</g>
		<g>
			<path style="fill:#ECFBFF;" d="M37.12,452.831c-2.902-1.405-5.627-2.927-8.17-4.262c-1.268-0.666-2.501-1.294-3.654-1.835
				c-1.065-0.524-2.126-1.081-2.239-2.226c-0.221,0.512-0.116,1.211,0.206,1.783c0.314,0.582,0.775,1.088,1.268,1.55
				c0.955,0.887,1.983,1.788,3.121,2.704c2.269,1.823,4.945,3.688,8.063,5.199c3.113,1.513,6.378,2.439,9.384,2.683
				c3.011,0.253,5.736-0.198,7.773-1.019c-2.196-0.166-4.697-0.552-7.363-1.309C42.841,455.341,40.02,454.237,37.12,452.831z"/>
		</g>
		<g>
			<path style="fill:#ECFBFF;" d="M218.083,357.875c-3.05-3.374-6.824-5.725-10.499-6.927c-3.682-1.226-7.227-1.27-9.934-0.656
				c2.65,0.883,5.568,2.095,8.466,3.884c2.898,1.778,5.781,4.099,8.362,6.945c5.169,5.756,8.166,12.469,10.426,17.548
				c0.334-2.76,0.198-6.178-0.831-9.847C223.054,365.167,221.111,361.253,218.083,357.875z"/>
		</g>
	</g>
</g>
</svg>
